<svg width="142" height="19" viewBox="0 0 142 19" fill="none" xmlns="http://www.w3.org/2000/svg">
<path d="M0.0728282 9.032C0.0728282 8.024 0.276828 7.142 0.684828 6.386C1.09283 5.618 1.65083 5.024 2.35883 4.604C3.07883 4.184 3.88283 3.974 4.77083 3.974C5.53883 3.974 6.25283 4.154 6.91283 4.514C7.57283 4.862 8.07683 5.324 8.42483 5.9V0.68H10.0808V14H8.42483V12.146C8.10083 12.734 7.62083 13.22 6.98483 13.604C6.34883 13.976 5.60483 14.162 4.75283 14.162C3.87683 14.162 3.07883 13.946 2.35883 13.514C1.65083 13.082 1.09283 12.476 0.684828 11.696C0.276828 10.916 0.0728282 10.028 0.0728282 9.032ZM8.42483 9.05C8.42483 8.306 8.27483 7.658 7.97483 7.106C7.67483 6.554 7.26683 6.134 6.75083 5.846C6.24683 5.546 5.68883 5.396 5.07683 5.396C4.46483 5.396 3.90683 5.54 3.40283 5.828C2.89883 6.116 2.49683 6.536 2.19683 7.088C1.89683 7.64 1.74683 8.288 1.74683 9.032C1.74683 9.788 1.89683 10.448 2.19683 11.012C2.49683 11.564 2.89883 11.99 3.40283 12.29C3.90683 12.578 4.46483 12.722 5.07683 12.722C5.68883 12.722 6.24683 12.578 6.75083 12.29C7.26683 11.99 7.67483 11.564 7.97483 11.012C8.27483 10.448 8.42483 9.794 8.42483 9.05ZM14.4869 5.738C14.7749 5.174 15.1829 4.736 15.7109 4.424C16.2509 4.112 16.9049 3.956 17.6729 3.956V5.648H17.2409C15.4049 5.648 14.4869 6.644 14.4869 8.636V14H12.8489V4.136H14.4869V5.738ZM18.9517 9.032C18.9517 8.024 19.1557 7.142 19.5637 6.386C19.9717 5.618 20.5297 5.024 21.2377 4.604C21.9577 4.184 22.7557 3.974 23.6317 3.974C24.4957 3.974 25.2457 4.16 25.8817 4.532C26.5177 4.904 26.9917 5.372 27.3037 5.936V4.136H28.9597V14H27.3037V12.164C26.9797 12.74 26.4937 13.22 25.8457 13.604C25.2097 13.976 24.4657 14.162 23.6137 14.162C22.7377 14.162 21.9457 13.946 21.2377 13.514C20.5297 13.082 19.9717 12.476 19.5637 11.696C19.1557 10.916 18.9517 10.028 18.9517 9.032ZM27.3037 9.05C27.3037 8.306 27.1537 7.658 26.8537 7.106C26.5537 6.554 26.1457 6.134 25.6297 5.846C25.1257 5.546 24.5677 5.396 23.9557 5.396C23.3437 5.396 22.7857 5.54 22.2817 5.828C21.7777 6.116 21.3757 6.536 21.0757 7.088C20.7757 7.64 20.6257 8.288 20.6257 9.032C20.6257 9.788 20.7757 10.448 21.0757 11.012C21.3757 11.564 21.7777 11.99 22.2817 12.29C22.7857 12.578 23.3437 12.722 23.9557 12.722C24.5677 12.722 25.1257 12.578 25.6297 12.29C26.1457 11.99 26.5537 11.564 26.8537 11.012C27.1537 10.448 27.3037 9.794 27.3037 9.05ZM44.8678 4.136L41.7898 14H40.0978L37.7218 6.17L35.3458 14H33.6538L30.5578 4.136H32.2318L34.4998 12.416L36.9478 4.136H38.6218L41.0158 12.434L43.2478 4.136H44.8678ZM59.7883 4.136L53.8483 18.644H52.1562L54.1003 13.892L50.1223 4.136H51.9403L55.0363 12.128L58.0963 4.136H59.7883ZM65.7368 14.162C64.8128 14.162 63.9728 13.952 63.2168 13.532C62.4728 13.112 61.8848 12.518 61.4528 11.75C61.0328 10.97 60.8228 10.07 60.8228 9.05C60.8228 8.042 61.0388 7.154 61.4708 6.386C61.9148 5.606 62.5148 5.012 63.2708 4.604C64.0268 4.184 64.8728 3.974 65.8088 3.974C66.7448 3.974 67.5908 4.184 68.3468 4.604C69.1028 5.012 69.6968 5.6 70.1288 6.368C70.5728 7.136 70.7948 8.03 70.7948 9.05C70.7948 10.07 70.5668 10.97 70.1108 11.75C69.6668 12.518 69.0608 13.112 68.2928 13.532C67.5248 13.952 66.6728 14.162 65.7368 14.162ZM65.7368 12.722C66.3248 12.722 66.8768 12.584 67.3928 12.308C67.9088 12.032 68.3228 11.618 68.6348 11.066C68.9588 10.514 69.1208 9.842 69.1208 9.05C69.1208 8.258 68.9648 7.586 68.6528 7.034C68.3408 6.482 67.9328 6.074 67.4288 5.81C66.9248 5.534 66.3788 5.396 65.7908 5.396C65.1908 5.396 64.6388 5.534 64.1348 5.81C63.6428 6.074 63.2468 6.482 62.9468 7.034C62.6468 7.586 62.4968 8.258 62.4968 9.05C62.4968 9.854 62.6408 10.532 62.9288 11.084C63.2288 11.636 63.6248 12.05 64.1168 12.326C64.6088 12.59 65.1488 12.722 65.7368 12.722ZM81.6965 4.136V14H80.0585V12.542C79.7465 13.046 79.3085 13.442 78.7445 13.73C78.1925 14.006 77.5805 14.144 76.9085 14.144C76.1405 14.144 75.4505 13.988 74.8385 13.676C74.2265 13.352 73.7405 12.872 73.3805 12.236C73.0325 11.6 72.8585 10.826 72.8585 9.914V4.136H74.4785V9.698C74.4785 10.67 74.7245 11.42 75.2165 11.948C75.7085 12.464 76.3805 12.722 77.2325 12.722C78.1085 12.722 78.7985 12.452 79.3025 11.912C79.8065 11.372 80.0585 10.586 80.0585 9.554V4.136H81.6965ZM86.1002 5.738C86.3882 5.174 86.7962 4.736 87.3242 4.424C87.8642 4.112 88.5182 3.956 89.2862 3.956V5.648H88.8542C87.0182 5.648 86.1002 6.644 86.1002 8.636V14H84.4622V4.136H86.1002V5.738ZM99.4678 14.162C98.7118 14.162 98.0338 14.036 97.4338 13.784C96.8338 13.52 96.3598 13.16 96.0118 12.704C95.6638 12.236 95.4718 11.702 95.4358 11.102H97.1278C97.1758 11.594 97.4038 11.996 97.8118 12.308C98.2318 12.62 98.7778 12.776 99.4498 12.776C100.074 12.776 100.566 12.638 100.926 12.362C101.286 12.086 101.466 11.738 101.466 11.318C101.466 10.886 101.274 10.568 100.89 10.364C100.506 10.148 99.9118 9.938 99.1078 9.734C98.3758 9.542 97.7758 9.35 97.3078 9.158C96.8518 8.954 96.4558 8.66 96.1198 8.276C95.7958 7.88 95.6338 7.364 95.6338 6.728C95.6338 6.224 95.7838 5.762 96.0838 5.342C96.3838 4.922 96.8098 4.592 97.3618 4.352C97.9138 4.1 98.5438 3.974 99.2518 3.974C100.344 3.974 101.226 4.25 101.898 4.802C102.57 5.354 102.93 6.11 102.978 7.07H101.34C101.304 6.554 101.094 6.14 100.71 5.828C100.338 5.516 99.8338 5.36 99.1978 5.36C98.6098 5.36 98.1418 5.486 97.7938 5.738C97.4458 5.99 97.2718 6.32 97.2718 6.728C97.2718 7.052 97.3738 7.322 97.5778 7.538C97.7938 7.742 98.0578 7.91 98.3698 8.042C98.6938 8.162 99.1378 8.3 99.7018 8.456C100.41 8.648 100.986 8.84 101.43 9.032C101.874 9.212 102.252 9.488 102.564 9.86C102.888 10.232 103.056 10.718 103.068 11.318C103.068 11.858 102.918 12.344 102.618 12.776C102.318 13.208 101.892 13.55 101.34 13.802C100.8 14.042 100.176 14.162 99.4678 14.162ZM107.378 5.486V11.3C107.378 11.78 107.48 12.122 107.684 12.326C107.888 12.518 108.242 12.614 108.746 12.614H109.952V14H108.476C107.564 14 106.88 13.79 106.424 13.37C105.968 12.95 105.74 12.26 105.74 11.3V5.486H104.462V4.136H105.74V1.652H107.378V4.136H109.952V5.486H107.378ZM116.239 14.162C115.315 14.162 114.475 13.952 113.719 13.532C112.975 13.112 112.387 12.518 111.955 11.75C111.535 10.97 111.325 10.07 111.325 9.05C111.325 8.042 111.541 7.154 111.973 6.386C112.417 5.606 113.017 5.012 113.773 4.604C114.529 4.184 115.375 3.974 116.311 3.974C117.247 3.974 118.093 4.184 118.849 4.604C119.605 5.012 120.199 5.6 120.631 6.368C121.075 7.136 121.297 8.03 121.297 9.05C121.297 10.07 121.069 10.97 120.613 11.75C120.169 12.518 119.563 13.112 118.795 13.532C118.027 13.952 117.175 14.162 116.239 14.162ZM116.239 12.722C116.827 12.722 117.379 12.584 117.895 12.308C118.411 12.032 118.825 11.618 119.137 11.066C119.461 10.514 119.623 9.842 119.623 9.05C119.623 8.258 119.467 7.586 119.155 7.034C118.843 6.482 118.435 6.074 117.931 5.81C117.427 5.534 116.881 5.396 116.293 5.396C115.693 5.396 115.141 5.534 114.637 5.81C114.145 6.074 113.749 6.482 113.449 7.034C113.149 7.586 112.999 8.258 112.999 9.05C112.999 9.854 113.143 10.532 113.431 11.084C113.731 11.636 114.127 12.05 114.619 12.326C115.111 12.59 115.651 12.722 116.239 12.722ZM125.088 5.738C125.376 5.174 125.784 4.736 126.312 4.424C126.852 4.112 127.506 3.956 128.274 3.956V5.648H127.842C126.006 5.648 125.088 6.644 125.088 8.636V14H123.45V4.136H125.088V5.738ZM138.661 4.136L132.721 18.644H131.029L132.973 13.892L128.995 4.136H130.813L133.909 12.128L136.969 4.136H138.661ZM140.83 14.108C140.518 14.108 140.254 14 140.038 13.784C139.822 13.568 139.714 13.304 139.714 12.992C139.714 12.68 139.822 12.416 140.038 12.2C140.254 11.984 140.518 11.876 140.83 11.876C141.13 11.876 141.382 11.984 141.586 12.2C141.802 12.416 141.91 12.68 141.91 12.992C141.91 13.304 141.802 13.568 141.586 13.784C141.382 14 141.13 14.108 140.83 14.108Z" fill="black"/>
</svg>
