<svg width="375" height="400" viewBox="0 0 375 400" fill="none" xmlns="http://www.w3.org/2000/svg">
<path d="M169.54 63.22C169.43 63.2279 169.322 63.2574 169.223 63.3069C169.124 63.3564 169.036 63.4249 168.964 63.5085C168.891 63.592 168.836 63.689 168.801 63.794C168.766 63.8989 168.752 64.0097 168.76 64.12C168.768 64.2303 168.797 64.338 168.847 64.4369C168.896 64.5358 168.965 64.624 169.048 64.6964C169.132 64.7688 169.229 64.8241 169.334 64.859C169.439 64.8939 169.55 64.9079 169.66 64.9C169.77 64.8924 169.878 64.863 169.977 64.8136C170.076 64.7642 170.165 64.6958 170.237 64.6121C170.31 64.5285 170.365 64.4314 170.4 64.3263C170.434 64.2213 170.448 64.1104 170.44 64C170.42 63.779 170.315 63.5744 170.147 63.429C169.979 63.2836 169.762 63.2087 169.54 63.22Z" fill="black"/>
<path d="M158.54 63.52C158.431 63.525 158.323 63.552 158.224 63.5993C158.125 63.6465 158.037 63.7132 157.964 63.7952C157.891 63.8773 157.836 63.973 157.801 64.0769C157.766 64.1808 157.752 64.2907 157.76 64.4C157.768 64.5104 157.797 64.6182 157.846 64.7173C157.896 64.8163 157.964 64.9046 158.048 64.9771C158.132 65.0495 158.229 65.1048 158.334 65.1396C158.439 65.1744 158.55 65.1882 158.66 65.18C158.77 65.1725 158.877 65.1431 158.975 65.0934C159.073 65.0437 159.16 64.9749 159.231 64.8909C159.302 64.807 159.355 64.7097 159.387 64.6047C159.42 64.4997 159.431 64.3893 159.42 64.28C159.415 64.1713 159.388 64.0647 159.341 63.9667C159.293 63.8688 159.226 63.7816 159.144 63.7104C159.061 63.6393 158.965 63.5857 158.862 63.553C158.758 63.5202 158.648 63.509 158.54 63.52Z" fill="black"/>
<path d="M154 25.4V39.58C153.16 40.1422 152.4 40.815 151.74 41.58C149.577 44.3219 148.195 47.5973 147.74 51.06C147.42 52.7 147.2 54.28 147 55.74C146.321 55.3187 145.518 55.1425 144.725 55.2407C143.932 55.339 143.196 55.7057 142.64 56.28C140.44 58.28 139.58 62.92 141.04 64.86C141.485 65.3981 142.049 65.8248 142.688 66.106C143.327 66.3873 144.023 66.5154 144.72 66.48C145.053 66.5009 145.387 66.5009 145.72 66.48C145.1 74.48 145.2 82.04 145.32 89.96C145.32 93.06 145.32 96.2 145.32 99.42C144.286 100.384 143.586 101.652 143.32 103.04C143.32 103.32 143.14 103.58 143.06 103.84C140.7 103.84 131.36 103.84 125.8 106.78C118.86 110.4 90.56 132.28 82.96 145.9L68.76 187.26C67.1872 188.718 66.1161 190.636 65.7 192.74C64.8975 196.387 62.8195 199.628 59.84 201.88C59.1614 202.274 58.6265 202.875 58.3135 203.594C58.0005 204.314 57.9257 205.115 58.1 205.88C58.284 206.393 58.6333 206.831 59.093 207.124C59.5528 207.418 60.097 207.55 60.64 207.5H60.8C60.6929 208.099 60.7552 208.715 60.98 209.28C61.1722 209.672 61.4758 209.999 61.8529 210.22C62.23 210.44 62.6639 210.545 63.1 210.52C63.7538 210.482 64.3963 210.334 65 210.08C65.3374 210.53 65.7754 210.894 66.279 211.144C66.7826 211.395 67.3378 211.523 67.9 211.52C70.44 211.52 73.36 209.18 75.36 205.76C75.7728 205.934 76.2126 206.036 76.66 206.06C77.0211 206.061 77.3796 206 77.72 205.88C78.2555 205.659 78.7367 205.325 79.1303 204.901C79.524 204.476 79.8207 203.971 80 203.42V203.18C80.7084 201.421 81.1141 199.555 81.2 197.66C81.4618 195.31 81.2579 192.931 80.6 190.66C81.68 189.38 85.04 183.64 98.72 158.06L123.4 139.72C122.96 148.02 121.4 169.52 120.32 187.02C119.5 198.88 118.82 209.02 118.66 212.1C118.652 212.199 118.665 212.299 118.7 212.392C118.735 212.486 118.789 212.57 118.86 212.64C118.927 212.711 119.007 212.767 119.097 212.805C119.186 212.843 119.283 212.861 119.38 212.86H119.7C119.34 219.78 118.64 228.12 117.7 237.68C114.852 238.139 111.948 238.139 109.1 237.68C109.005 237.663 108.908 237.665 108.814 237.686C108.72 237.707 108.632 237.747 108.553 237.803C108.475 237.859 108.409 237.93 108.358 238.012C108.308 238.094 108.275 238.185 108.26 238.28C108.243 238.375 108.245 238.472 108.266 238.566C108.287 238.66 108.327 238.748 108.383 238.827C108.439 238.905 108.51 238.971 108.592 239.022C108.674 239.072 108.765 239.106 108.86 239.12C110.479 239.397 112.118 239.538 113.76 239.54C115.026 239.533 116.289 239.432 117.54 239.24C112.76 283.8 102.88 341.56 101.98 346.82C101.835 346.887 101.716 346.999 101.64 347.14L95.28 360L93.14 364.1C93.0934 364.188 93.0658 364.286 93.0589 364.385C93.0519 364.485 93.0658 364.585 93.0997 364.679C93.1335 364.773 93.1866 364.859 93.2556 364.932C93.3245 365.004 93.4077 365.062 93.5 365.1L114.44 374.52H114.74L140 374.4C140.193 374.4 140.378 374.325 140.516 374.19C140.655 374.056 140.735 373.873 140.74 373.68V369.86C140.749 369.774 140.749 369.686 140.74 369.6C140.761 369.494 140.761 369.386 140.74 369.28C140.18 365.6 134.88 360.44 127.86 360.76C126.44 360.76 125.66 360.02 124.16 358.3C122.383 356.118 120.221 354.281 117.78 352.88C122.52 347.3 140 317.48 154 284.78V374H310V25.4H154ZM308.6 26.86V39.88H280.6V30.72L184.4 41.5C184.581 41.1507 184.675 40.7632 184.675 40.37C184.675 39.9768 184.581 39.5893 184.4 39.24C183.52 37.52 180.62 36.32 166.12 42.28C162.42 38.62 158.76 37.42 155.44 38.8V26.8L308.6 26.86ZM169.54 46.4C168.802 45.3636 168.008 44.3687 167.16 43.42C180.7 37.92 182.76 39.32 183.16 39.9C183.28 40.16 183.6 40.78 182.42 41.9C179.52 44.24 171.6 46 169.54 46.4ZM152.76 42.5C153.448 41.7093 154.258 41.0341 155.16 40.5C158.02 38.86 161.16 39.7 164.62 42.9C158.46 45.5 152.62 48.38 149.58 49.82C150.031 47.1584 151.123 44.6463 152.76 42.5ZM142.24 64C141.3 62.78 141.92 59 143.66 57.36C143.885 57.132 144.155 56.9543 144.453 56.8386C144.752 56.7229 145.071 56.6719 145.391 56.6889C145.71 56.7059 146.022 56.7906 146.307 56.9373C146.591 57.084 146.841 57.2895 147.04 57.54C147.645 58.0943 148.182 58.7187 148.64 59.4C148.691 59.4811 148.757 59.551 148.836 59.6053C148.914 59.6597 149.003 59.6974 149.097 59.7161C149.19 59.7349 149.287 59.7342 149.38 59.7143C149.474 59.6943 149.562 59.6554 149.64 59.6C149.722 59.5475 149.792 59.4791 149.847 59.3988C149.901 59.3185 149.939 59.228 149.958 59.1327C149.976 59.0374 149.975 58.9393 149.955 58.8443C149.935 58.7493 149.896 58.6594 149.84 58.58C149.413 57.9343 148.917 57.3374 148.36 56.8V56.48C148.56 55.02 148.78 53.38 149.1 51.72L150.18 51.2C153.18 49.72 159.38 46.7 165.7 44.06C166.743 45.1911 167.706 46.3941 168.58 47.66C171.537 51.8851 173.811 56.5487 175.32 61.48C176.96 67.98 167.54 83.28 164.9 84.32C164.61 84.4395 164.309 84.5267 164 84.58C160.26 85.28 155.26 81.78 153.64 78.42C153.607 78.3199 153.553 78.2279 153.481 78.1504C153.41 78.0728 153.323 78.0115 153.226 77.9704C153.129 77.9293 153.024 77.9094 152.918 77.9121C152.813 77.9148 152.709 77.94 152.614 77.986C152.52 78.032 152.436 78.0977 152.368 78.1788C152.301 78.2599 152.252 78.3545 152.224 78.4562C152.196 78.5579 152.19 78.6644 152.207 78.7685C152.223 78.8727 152.262 78.972 152.32 79.06C153.379 81.0206 154.914 82.6836 156.784 83.8962C158.654 85.1088 160.798 85.8322 163.02 86C163.207 86.0109 163.394 86.0109 163.58 86C163.86 87.32 164.08 88.72 164.32 90.18C164.681 93.0294 165.297 95.8407 166.16 98.58C159.795 97.3946 153.265 97.3946 146.9 98.58C146.9 95.56 146.9 92.58 146.9 89.72C146.62 81.8126 146.734 73.8961 147.24 66L147.92 65.72C148.089 65.6235 148.213 65.4645 148.265 65.2774C148.317 65.0903 148.294 64.8901 148.2 64.72C148.156 64.6352 148.095 64.5603 148.022 64.4998C147.948 64.4393 147.862 64.3946 147.77 64.3684C147.679 64.3421 147.583 64.335 147.488 64.3473C147.393 64.3596 147.302 64.3912 147.22 64.44C146.915 64.6008 146.593 64.7282 146.26 64.82C145.582 65.0823 144.842 65.1445 144.13 64.9992C143.417 64.8538 142.761 64.507 142.24 64ZM262.42 181.02C262.59 181.114 262.79 181.137 262.977 181.085C263.164 181.033 263.324 180.909 263.42 180.74C264.98 177.96 267.32 177 271 177.62L271.64 177.74C271.98 177.74 274.74 178.44 275.02 180.36C274.785 180.188 274.538 180.034 274.28 179.9C272.423 178.916 270.253 178.702 268.24 179.304C266.227 179.907 264.531 181.278 263.52 183.12C263.473 183.203 263.442 183.294 263.43 183.389C263.418 183.483 263.425 183.579 263.45 183.671C263.501 183.857 263.623 184.015 263.79 184.11C263.957 184.205 264.155 184.231 264.341 184.18C264.527 184.129 264.685 184.007 264.78 183.84C265.631 182.342 267.03 181.232 268.682 180.744C270.334 180.255 272.111 180.426 273.64 181.22C274.074 181.419 274.483 181.667 274.86 181.96C275.532 182.357 276.056 182.962 276.352 183.685C276.648 184.407 276.7 185.206 276.5 185.96C275.868 184.673 274.787 183.663 273.46 183.12C272.374 182.689 271.186 182.585 270.041 182.821C268.897 183.056 267.846 183.62 267.017 184.444C266.189 185.268 265.619 186.316 265.378 187.46C265.137 188.603 265.235 189.792 265.66 190.88C266.168 191.952 266.982 192.85 268 193.46C267.302 193.608 266.577 193.567 265.9 193.34C264.256 192.491 262.982 191.067 262.32 189.34C262.168 188.988 261.938 188.675 261.647 188.426C261.355 188.176 261.011 187.996 260.64 187.9C259.68 187.66 258.64 187.34 257.52 187C258.425 185.445 258.947 183.697 259.04 181.9C259.183 180.771 259.183 179.629 259.04 178.5C259.531 178.808 260.073 179.025 260.64 179.14C260.719 179.16 260.801 179.16 260.88 179.14H261.18L261.32 178.84C261.925 177.852 262.755 177.02 263.742 176.412C264.729 175.803 265.845 175.436 267 175.34C267.529 175.278 268.065 175.322 268.577 175.469C269.089 175.617 269.566 175.865 269.98 176.2C268.446 175.992 266.886 176.266 265.514 176.982C264.142 177.698 263.026 178.823 262.32 180.2C262.266 180.324 262.246 180.46 262.264 180.594C262.282 180.728 262.336 180.855 262.42 180.96V181.02ZM270 192.8C269.82 192.761 269.645 192.701 269.48 192.62C268.934 192.395 268.437 192.063 268.02 191.645C267.602 191.227 267.271 190.73 267.046 190.184C266.821 189.637 266.707 189.052 266.709 188.46C266.711 187.869 266.831 187.285 267.06 186.74C267.402 185.929 267.975 185.237 268.707 184.75C269.44 184.262 270.3 184.002 271.18 184C271.771 183.995 272.356 184.11 272.9 184.34C273.9 184.814 274.69 185.639 275.119 186.658C275.549 187.677 275.588 188.819 275.23 189.866C274.871 190.912 274.139 191.79 273.175 192.331C272.21 192.872 271.08 193.039 270 192.8ZM80 197.56C79.9196 199.309 79.5479 201.033 78.9 202.66V202.9C78.7781 203.226 78.591 203.523 78.3503 203.774C78.1096 204.025 77.8203 204.225 77.5 204.36C77.124 204.488 76.7161 204.488 76.34 204.36C77.1183 202.724 77.6636 200.987 77.96 199.2C77.9887 199.006 77.9396 198.809 77.8234 198.652C77.7072 198.495 77.5334 198.39 77.34 198.36C77.1494 198.331 76.955 198.377 76.7981 198.489C76.6412 198.601 76.5343 198.77 76.5 198.96C76.2073 200.861 75.5989 202.7 74.7 204.4C72.78 207.58 70 209.88 68 210C67.7133 210.008 67.4279 209.958 67.1602 209.855C66.8926 209.752 66.6478 209.598 66.44 209.4C68.4009 208.367 70.1007 206.9 71.4105 205.112C72.7204 203.324 73.6059 201.261 74 199.08C74.0418 198.889 74.0063 198.689 73.9014 198.525C73.7965 198.36 73.6307 198.243 73.44 198.2C73.3467 198.18 73.2503 198.178 73.1564 198.195C73.0624 198.212 72.9728 198.248 72.8928 198.3C72.8127 198.352 72.7438 198.42 72.6902 198.499C72.6365 198.578 72.599 198.666 72.58 198.76C72.2074 200.778 71.37 202.682 70.1342 204.32C68.8984 205.959 67.2981 207.287 65.46 208.2L65.02 208.42C64 208.88 62.72 209.26 62.36 208.42C62.2493 208.096 62.2438 207.746 62.3444 207.419C62.445 207.092 62.6465 206.805 62.92 206.6C63.0112 206.557 63.0928 206.495 63.16 206.42C65.9 204.68 69.4 200.68 69.92 197.92C69.9537 197.82 69.9656 197.714 69.955 197.609C69.9443 197.504 69.9114 197.403 69.8583 197.312C69.8053 197.221 69.7334 197.142 69.6475 197.081C69.5615 197.02 69.4635 196.978 69.36 196.957C69.2565 196.937 69.1498 196.94 69.0473 196.964C68.9447 196.988 68.8485 197.034 68.7652 197.099C68.6818 197.164 68.6133 197.245 68.5641 197.339C68.5149 197.432 68.4863 197.535 68.48 197.64C68.04 200.06 64.48 203.98 62.08 205.38C61.6954 205.628 61.2561 205.779 60.8 205.82C60.34 205.82 59.7 205.82 59.54 205.22C59.4905 204.766 59.576 204.307 59.7859 203.902C59.9958 203.496 60.3208 203.162 60.72 202.94C63.9627 200.507 66.2432 197.009 67.16 193.06C67.9 190.76 68.54 189.06 69.94 188.18C74.82 189.58 77.94 190.46 79.34 190.78C80.031 192.969 80.2558 195.279 80 197.56ZM195.68 212.74C215.68 280.92 229.68 339.18 229.14 347.26C227.54 347.86 220 349.82 214.94 351.08C210.94 341.7 174.4 274.68 163.78 259.68C167.075 250.377 169.682 240.845 171.58 231.16C171.604 230.97 171.556 230.778 171.445 230.623C171.333 230.467 171.167 230.359 170.98 230.32C170.887 230.303 170.791 230.304 170.698 230.324C170.605 230.344 170.518 230.382 170.439 230.435C170.361 230.489 170.295 230.558 170.243 230.638C170.192 230.718 170.157 230.807 170.14 230.9C168.192 240.698 165.518 250.338 162.14 259.74C159.82 266.44 157.08 273.58 153.98 281C139.44 315.7 120.64 347.86 116.36 352.18L103.38 347.02C104.26 341.9 114.24 283.64 119 238.9C126.26 237.38 131 232.9 132.24 226.08C132.274 225.98 132.286 225.874 132.275 225.769C132.264 225.664 132.231 225.563 132.178 225.472C132.125 225.381 132.053 225.302 131.967 225.241C131.882 225.18 131.783 225.138 131.68 225.117C131.576 225.097 131.47 225.1 131.367 225.124C131.265 225.148 131.169 225.194 131.085 225.259C131.002 225.324 130.933 225.405 130.884 225.499C130.835 225.592 130.806 225.695 130.8 225.8C130.276 228.694 128.877 231.357 126.792 233.432C124.707 235.506 122.037 236.891 119.14 237.4C120.14 227.96 120.82 219.72 121.14 212.86L195.68 212.74ZM262.7 355.32L263.3 357.58L219.88 369.26L219.28 366.98L262.7 355.32ZM139.28 372.96L114.98 373.14L94.98 364.1L96.44 361.32L115.5 370.32C115.599 370.339 115.701 370.339 115.8 370.32L139.38 370.52L139.28 372.96ZM155.5 281.32C158.4 274.4 160.96 267.72 163.18 261.32C174.46 277.76 209.7 342.5 213.58 351.58L217.58 366.2H217.7C217.67 366.318 217.67 366.442 217.7 366.56C217.7 366.56 217.7 366.56 217.7 366.66L218.68 370.28C218.72 370.435 218.811 370.572 218.937 370.67C219.064 370.768 219.22 370.821 219.38 370.82H219.58L264.42 358.82C264.513 358.798 264.601 358.756 264.676 358.697C264.752 358.638 264.815 358.564 264.86 358.48C264.931 358.3 264.931 358.1 264.86 357.92L263.86 354.24C263.811 354.102 263.729 353.978 263.62 353.88C263.558 352.931 263.304 352.004 262.875 351.155C262.445 350.306 261.848 349.553 261.12 348.94C260.055 348.206 258.851 347.696 257.582 347.441C256.313 347.187 255.006 347.193 253.74 347.46C248.069 347.996 242.357 347.929 236.7 347.26C234.662 347.025 232.611 346.925 230.56 346.96C230.56 337.44 217.32 281.78 197.14 212.76H198.18C198.277 212.763 198.374 212.745 198.464 212.707C198.554 212.669 198.634 212.612 198.7 212.54C198.827 212.396 198.898 212.212 198.9 212.02C198.7 201.3 194.76 171.66 191.02 146.6C195.92 152.26 210.16 168.6 213.3 170.46C227.187 177.116 241.444 182.972 256 188C257.52 188.48 258.94 188.9 260.24 189.24C260.393 189.283 260.535 189.36 260.656 189.463C260.777 189.567 260.874 189.695 260.94 189.84C261.723 191.974 263.309 193.718 265.36 194.7C265.942 194.917 266.559 195.026 267.18 195.02C268.182 195 269.166 194.754 270.06 194.3C270.434 194.386 270.816 194.433 271.2 194.44C272.374 194.435 273.521 194.086 274.499 193.435C275.477 192.785 276.242 191.861 276.7 190.78C277.129 189.786 277.267 188.69 277.1 187.62C277.172 187.566 277.238 187.505 277.3 187.44C277.948 186.522 278.224 185.392 278.072 184.279C277.919 183.165 277.351 182.151 276.48 181.44C277.06 178.24 273.9 176.72 271.96 176.32C271.971 176.247 271.971 176.173 271.96 176.1C271.421 175.263 270.656 174.595 269.754 174.174C268.851 173.753 267.848 173.595 266.86 173.72C265.558 173.84 264.297 174.237 263.162 174.886C262.027 175.535 261.044 176.419 260.28 177.48C259.9 177.32 259.2 176.98 258 176.34C250.6 172.44 230.78 161 225.58 155.86C225.04 155.32 222.78 151.54 220.18 147.18C212.48 134.3 199.6 112.74 192.18 108.08C187.04 104.88 174.18 103.96 171.26 103.8C170.66 102.028 169.52 100.49 168 99.4C166.864 96.3726 166.111 93.2146 165.76 90C165.54 88.58 165.3 87.14 165.02 85.78L165.48 85.64C168.66 84.38 178.64 68.38 176.76 61.08C175.332 56.3425 173.202 51.8458 170.44 47.74C173.2 47.18 179.94 45.56 183 43.16L279.14 32.38V372.58H155.4L155.5 281.32Z" fill="black"/>
<path d="M185.36 37.46C186.151 37.46 186.925 37.2254 187.582 36.7859C188.24 36.3463 188.753 35.7216 189.056 34.9907C189.358 34.2598 189.438 33.4555 189.283 32.6796C189.129 31.9037 188.748 31.191 188.188 30.6315C187.629 30.0721 186.916 29.6912 186.14 29.5368C185.364 29.3825 184.56 29.4617 183.829 29.7645C183.098 30.0672 182.474 30.5799 182.034 31.2377C181.595 31.8955 181.36 32.6688 181.36 33.46C181.36 34.5208 181.781 35.5383 182.532 36.2884C183.282 37.0385 184.299 37.46 185.36 37.46ZM185.36 31C185.854 31.0039 186.335 31.1539 186.743 31.431C187.152 31.7081 187.469 32.0999 187.655 32.557C187.842 33.0142 187.888 33.5162 187.79 33.9998C187.691 34.4835 187.451 34.9271 187.101 35.2747C186.75 35.6223 186.305 35.8584 185.82 35.9533C185.336 36.0482 184.834 35.9975 184.379 35.8077C183.923 35.6179 183.534 35.2975 183.26 34.8868C182.986 34.4761 182.84 33.9936 182.84 33.5C182.84 33.17 182.905 32.8433 183.032 32.5386C183.159 32.234 183.345 31.9575 183.579 31.7251C183.814 31.4927 184.092 31.309 184.397 31.1845C184.703 31.0601 185.03 30.9973 185.36 31Z" fill="black"/>
<path d="M174 37.46C174.791 37.46 175.564 37.2254 176.222 36.7859C176.88 36.3463 177.393 35.7216 177.696 34.9907C177.998 34.2598 178.077 33.4555 177.923 32.6796C177.769 31.9037 177.388 31.191 176.828 30.6315C176.269 30.0721 175.556 29.6912 174.78 29.5368C174.004 29.3825 173.2 29.4617 172.469 29.7645C171.738 30.0672 171.114 30.5799 170.674 31.2377C170.235 31.8955 170 32.6688 170 33.46C170 34.5208 170.421 35.5383 171.172 36.2884C171.922 37.0385 172.939 37.46 174 37.46ZM174 31C174.494 31.0039 174.975 31.1539 175.383 31.431C175.792 31.7081 176.109 32.0999 176.295 32.557C176.482 33.0142 176.528 33.5162 176.43 33.9998C176.331 34.4835 176.091 34.9271 175.741 35.2747C175.39 35.6223 174.945 35.8584 174.46 35.9533C173.976 36.0482 173.474 35.9975 173.019 35.8077C172.563 35.6179 172.174 35.2975 171.9 34.8868C171.626 34.4761 171.48 33.9936 171.48 33.5C171.48 33.17 171.545 32.8433 171.672 32.5386C171.799 32.234 171.985 31.9575 172.219 31.7251C172.454 31.4927 172.732 31.309 173.037 31.1845C173.343 31.0601 173.67 30.9973 174 31Z" fill="black"/>
<path d="M162.54 37.46C163.331 37.46 164.105 37.2254 164.762 36.7859C165.42 36.3463 165.933 35.7216 166.236 34.9907C166.538 34.2598 166.618 33.4555 166.463 32.6796C166.309 31.9037 165.928 31.191 165.368 30.6315C164.809 30.0721 164.096 29.6912 163.32 29.5368C162.544 29.3825 161.74 29.4617 161.009 29.7645C160.278 30.0672 159.654 30.5799 159.214 31.2377C158.775 31.8955 158.54 32.6688 158.54 33.46C158.54 34.5208 158.961 35.5383 159.712 36.2884C160.462 37.0385 161.479 37.46 162.54 37.46ZM162.54 31C163.033 31.0079 163.512 31.1612 163.918 31.4406C164.324 31.7201 164.638 32.1132 164.821 32.5707C165.004 33.0281 165.048 33.5295 164.947 34.0118C164.846 34.494 164.605 34.9358 164.254 35.2814C163.903 35.627 163.457 35.8612 162.973 35.9545C162.489 36.0477 161.989 35.9959 161.534 35.8056C161.08 35.6153 160.692 35.2949 160.419 34.8847C160.146 34.4744 160 33.9927 160 33.5C160 33.1683 160.066 32.8399 160.194 32.5339C160.322 32.228 160.51 31.9506 160.746 31.7179C160.983 31.4852 161.263 31.3019 161.571 31.1787C161.879 31.0554 162.208 30.9947 162.54 31Z" fill="black"/>
<path d="M155.26 61.4C155.437 61.4009 155.608 61.3369 155.74 61.22C156.311 60.8101 156.966 60.5312 157.657 60.4033C158.349 60.2754 159.06 60.3016 159.74 60.48C159.912 60.5323 160.098 60.52 160.262 60.4453C160.426 60.3706 160.557 60.2387 160.63 60.0743C160.704 59.9099 160.715 59.7244 160.662 59.5524C160.608 59.3804 160.494 59.2338 160.34 59.14C159.39 58.8381 158.382 58.7695 157.4 58.9401C156.418 59.1107 155.492 59.5154 154.7 60.12C154.563 60.2585 154.487 60.4453 154.487 60.64C154.487 60.8347 154.563 61.0215 154.7 61.16C154.77 61.2385 154.857 61.3007 154.953 61.3422C155.05 61.3836 155.155 61.4034 155.26 61.4Z" fill="black"/>
<path d="M147.16 60C147.021 59.8632 146.835 59.7865 146.64 59.7865C146.445 59.7865 146.258 59.8632 146.12 60C145.399 60.6512 144.471 61.0266 143.5 61.06C143.394 61.0424 143.285 61.0481 143.182 61.0767C143.078 61.1052 142.982 61.156 142.9 61.2255C142.818 61.295 142.752 61.3814 142.707 61.4789C142.662 61.5764 142.639 61.6826 142.639 61.79C142.639 61.8974 142.662 62.0036 142.707 62.1011C142.752 62.1986 142.818 62.285 142.9 62.3545C142.982 62.424 143.078 62.4748 143.182 62.5033C143.285 62.5319 143.394 62.5376 143.5 62.52C144.845 62.4923 146.132 61.9729 147.12 61.06C147.199 60.9972 147.263 60.9182 147.308 60.8283C147.354 60.7384 147.379 60.6398 147.383 60.5392C147.387 60.4385 147.369 60.3383 147.33 60.2452C147.292 60.1522 147.234 60.0685 147.16 60Z" fill="black"/>
<path d="M164.86 74.8C165.223 74.9129 165.6 74.9735 165.98 74.98C166.242 74.9921 166.505 74.9525 166.752 74.8632C166.999 74.774 167.226 74.637 167.42 74.46C168.46 73.48 168.22 71.56 167.84 69.82C167.76 69.42 167.66 68.98 167.54 68.5C167 66.24 166.2 62.82 166.84 61.26C166.84 61.08 167.14 60.92 167.48 60.78C168.523 60.4188 169.657 60.4188 170.7 60.78C170.788 60.8233 170.883 60.8483 170.981 60.8535C171.078 60.8587 171.176 60.844 171.267 60.8104C171.359 60.7767 171.443 60.7247 171.514 60.6576C171.585 60.5905 171.641 60.5096 171.68 60.42C171.756 60.2445 171.76 60.0465 171.693 59.8675C171.626 59.6886 171.492 59.5426 171.32 59.46C169.905 58.9483 168.355 58.9483 166.94 59.46C166.623 59.5642 166.33 59.7312 166.08 59.9512C165.829 60.1711 165.625 60.4394 165.48 60.74C164.66 62.74 165.48 66.14 166.12 68.88C166.12 69.34 166.32 69.78 166.42 70.16C166.9 72.4 166.68 73.18 166.42 73.42C166.16 73.66 165.58 73.52 165.26 73.42C165.169 73.3922 165.074 73.3827 164.98 73.3918C164.886 73.4009 164.794 73.4285 164.71 73.4731C164.627 73.5177 164.553 73.5784 164.493 73.6516C164.433 73.7249 164.387 73.8093 164.36 73.9C164.333 73.9919 164.324 74.0884 164.334 74.1837C164.345 74.2791 164.374 74.3714 164.421 74.4552C164.467 74.539 164.53 74.6127 164.606 74.6719C164.681 74.7311 164.767 74.7747 164.86 74.8Z" fill="black"/>
<path d="M160.48 78.88C160.899 79.3022 161.397 79.6364 161.947 79.8631C162.496 80.0898 163.086 80.2043 163.68 80.2C163.993 80.2296 164.307 80.2296 164.62 80.2C165.161 80.1213 165.674 79.9103 166.113 79.5859C166.553 79.2614 166.905 78.8335 167.14 78.34C167.179 78.2524 167.199 78.1578 167.2 78.0621C167.2 77.9663 167.181 77.8714 167.144 77.7833C167.106 77.6952 167.051 77.6158 166.982 77.5498C166.912 77.4839 166.83 77.4329 166.74 77.4C166.651 77.3611 166.555 77.3406 166.458 77.3397C166.361 77.3389 166.264 77.3577 166.175 77.3951C166.085 77.4325 166.004 77.4876 165.936 77.5572C165.868 77.6268 165.815 77.7094 165.78 77.8C165.627 78.0577 165.418 78.2777 165.169 78.4438C164.92 78.61 164.637 78.718 164.34 78.76C163.842 78.871 163.324 78.854 162.834 78.7106C162.345 78.5672 161.899 78.3021 161.54 77.94C161.4 77.8234 161.222 77.7625 161.04 77.769C160.858 77.7755 160.685 77.849 160.553 77.9753C160.422 78.1017 160.342 78.272 160.328 78.4537C160.315 78.6354 160.369 78.8157 160.48 78.96V78.88Z" fill="black"/>
</svg>
