<svg width="375" height="400" viewBox="0 0 375 400" fill="none" xmlns="http://www.w3.org/2000/svg">
<path d="M189.2 59.34C189.092 59.329 188.982 59.3402 188.878 59.3729C188.775 59.4057 188.679 59.4593 188.596 59.5304C188.514 59.6016 188.447 59.6888 188.399 59.7867C188.352 59.8846 188.325 59.9912 188.32 60.1C188.303 60.3197 188.374 60.5372 188.516 60.7055C188.658 60.8739 188.86 60.9796 189.08 61C189.302 61.0112 189.519 60.9363 189.687 60.791C189.855 60.6456 189.96 60.441 189.98 60.22C189.991 60.0004 189.915 59.7852 189.77 59.6207C189.624 59.4562 189.419 59.3554 189.2 59.34Z" fill="black"/>
<path d="M178.22 59.04C178.103 59.0151 177.981 59.0157 177.864 59.0416C177.747 59.0676 177.637 59.1183 177.541 59.1904C177.445 59.2625 177.366 59.3544 177.308 59.4597C177.251 59.5651 177.217 59.6815 177.208 59.8012C177.199 59.9208 177.217 60.041 177.258 60.1535C177.3 60.266 177.365 60.3683 177.45 60.4534C177.534 60.5386 177.636 60.6046 177.748 60.6472C177.86 60.6897 177.98 60.7077 178.1 60.7C178.303 60.6869 178.494 60.6009 178.638 60.458C178.782 60.315 178.869 60.1247 178.884 59.9223C178.898 59.7199 178.839 59.519 178.717 59.3568C178.595 59.1946 178.419 59.0821 178.22 59.04Z" fill="black"/>
<path d="M187.26 54.84C187.052 54.9397 186.891 55.1171 186.813 55.3341C186.734 55.5511 186.744 55.7902 186.84 56C186.936 56.2067 187.109 56.367 187.323 56.4458C187.537 56.5245 187.773 56.5152 187.98 56.42C188.658 56.2271 189.37 56.1917 190.063 56.3165C190.757 56.4413 191.412 56.723 191.98 57.14C192.138 57.2847 192.346 57.3634 192.56 57.36C192.808 57.3575 193.046 57.2569 193.22 57.08C193.378 56.9161 193.466 56.6975 193.466 56.47C193.466 56.2426 193.378 56.0239 193.22 55.86C192.391 55.2055 191.411 54.7692 190.37 54.591C189.329 54.4128 188.26 54.4984 187.26 54.84Z" fill="black"/>
<path d="M204.18 58.5C204.407 58.4817 204.621 58.3831 204.782 58.2219C204.943 58.0606 205.042 57.8473 205.06 57.62C205.06 57.3919 204.969 57.1731 204.808 57.0119C204.647 56.8506 204.428 56.76 204.2 56.76C203.267 56.7246 202.375 56.3638 201.68 55.74C201.513 55.5835 201.291 55.4998 201.062 55.5073C200.833 55.5148 200.617 55.6129 200.46 55.78C200.304 55.9471 200.22 56.1695 200.227 56.3983C200.235 56.6271 200.333 56.8435 200.5 57C201.506 57.9268 202.813 58.4594 204.18 58.5Z" fill="black"/>
<path d="M183 70.7C183.109 70.6702 183.21 70.6188 183.299 70.5489C183.387 70.479 183.461 70.392 183.515 70.2931C183.569 70.1942 183.603 70.0854 183.614 69.9732C183.625 69.861 183.614 69.7477 183.58 69.64C183.55 69.5287 183.498 69.4246 183.427 69.3337C183.356 69.2429 183.268 69.1672 183.167 69.1113C183.066 69.0553 182.955 69.0202 182.841 69.0079C182.726 68.9957 182.61 69.0066 182.5 69.04C182.02 69.2 181.64 69.2 181.48 69.04C181.32 68.88 181.04 68.22 181.48 65.92C181.48 65.54 181.66 65.1 181.78 64.64C182.42 61.9 183.22 58.48 182.4 56.46C182.251 56.1393 182.038 55.8528 181.773 55.6187C181.507 55.3847 181.197 55.2081 180.86 55.1C179.421 54.5688 177.839 54.5688 176.4 55.1C176.204 55.2019 176.054 55.3756 175.983 55.5848C175.911 55.794 175.923 56.0228 176.016 56.2236C176.108 56.4245 176.275 56.5818 176.48 56.6631C176.686 56.7444 176.915 56.7433 177.12 56.66C178.134 56.3286 179.226 56.3286 180.24 56.66C180.47 56.7296 180.669 56.8783 180.8 57.08C181.42 58.58 180.62 61.96 180.1 64.2L179.78 65.52C179.4 67.3 179.16 69.26 180.24 70.28C180.664 70.6545 181.214 70.8546 181.78 70.84C182.191 70.8503 182.602 70.8032 183 70.7Z" fill="black"/>
<path d="M186.12 73.54C185.768 73.8746 185.341 74.12 184.875 74.2557C184.409 74.3915 183.917 74.4135 183.44 74.32C183.164 74.2868 182.899 74.1901 182.667 74.0374C182.434 73.8847 182.24 73.6802 182.1 73.44C181.995 73.2564 181.827 73.1168 181.628 73.0468C181.428 72.9768 181.21 72.9811 181.013 73.0588C180.816 73.1365 180.654 73.2825 180.556 73.4701C180.458 73.6576 180.431 73.8741 180.48 74.08C180.713 74.6071 181.075 75.0668 181.533 75.4164C181.991 75.7661 182.53 75.9943 183.1 76.08C183.419 76.1185 183.741 76.1185 184.06 76.08C184.673 76.0835 185.28 75.965 185.847 75.7315C186.413 75.4981 186.928 75.1542 187.36 74.72C187.518 74.5561 187.606 74.3374 187.606 74.11C187.606 73.8825 187.518 73.6639 187.36 73.5C187.277 73.419 187.179 73.3557 187.071 73.3137C186.963 73.2717 186.847 73.252 186.732 73.2558C186.616 73.2595 186.502 73.2866 186.397 73.3354C186.292 73.3843 186.198 73.4539 186.12 73.54Z" fill="black"/>
<path d="M187.68 163.04C183.911 163.867 179.994 163.716 176.3 162.6C173.9 161.78 173.08 160.76 173.08 160.4C173.094 160.199 173.188 160.012 173.34 159.88C173.468 159.794 173.613 159.737 173.765 159.713C173.917 159.689 174.072 159.698 174.22 159.74C176.417 160.86 178.855 161.423 181.32 161.38C182.157 161.379 182.992 161.319 183.82 161.2C184.045 161.17 184.249 161.052 184.388 160.873C184.527 160.693 184.589 160.465 184.56 160.24C184.548 160.127 184.513 160.019 184.458 159.92C184.402 159.821 184.328 159.735 184.238 159.665C184.148 159.596 184.045 159.546 183.936 159.518C183.826 159.489 183.712 159.483 183.6 159.5C180.593 159.987 177.508 159.496 174.8 158.1C173.7 157.46 173.04 156.7 173 156.1C173.001 156.001 173.023 155.904 173.065 155.814C173.106 155.725 173.166 155.645 173.24 155.58C173.376 155.463 173.536 155.375 173.708 155.323C173.88 155.272 174.062 155.257 174.24 155.28C176.461 156.526 178.973 157.161 181.52 157.12C182.363 157.121 183.206 157.06 184.04 156.94C184.153 156.923 184.262 156.884 184.359 156.825C184.457 156.766 184.542 156.688 184.61 156.596C184.678 156.504 184.727 156.4 184.754 156.289C184.782 156.178 184.787 156.063 184.77 155.95C184.753 155.837 184.714 155.729 184.655 155.631C184.596 155.533 184.518 155.448 184.426 155.38C184.334 155.312 184.23 155.263 184.119 155.236C184.008 155.208 183.893 155.203 183.78 155.22C180.725 155.759 177.577 155.214 174.88 153.68C174.385 153.424 173.957 153.055 173.631 152.604C173.304 152.152 173.088 151.63 173 151.08C172.992 150.902 173.022 150.725 173.087 150.559C173.153 150.394 173.253 150.244 173.38 150.12C173.496 149.99 173.65 149.899 173.82 149.86C175.375 151.348 177.339 152.338 179.46 152.7C180.782 152.918 182.12 153.032 183.46 153.04C186.24 153.04 189.28 152.46 190.18 150.08V149.96C190.18 149.96 190.18 149.96 190.18 149.82L190.32 148.58C191.252 148.843 192.09 149.363 192.74 150.08C199.2 146.56 209.36 144.26 216.08 142.72L219.38 141.96L219.88 141.84C219.52 139.1 219.22 136.94 219 135.42L219.14 135.58C220.64 137.58 222.2 139.58 224.66 142.46L220.66 143.44L219.82 143.64L216.5 144.4C209.86 145.92 199.84 148.2 193.6 151.6L193.32 151.76C192.771 153.3 192.559 154.94 192.701 156.569C192.842 158.198 193.333 159.778 194.14 161.2C197.92 162.3 211.36 162.06 222.8 160.16C231.3 158.62 241.04 156.42 244.16 154.64C249.48 151.58 250.58 147.5 247.74 141.44C240.6 126 226.06 106 225.92 105.76L225.76 105.6C221.28 101.9 207.56 99.6 204.7 99.14V98.92C204.302 97.5743 203.533 96.3681 202.48 95.44C202.48 92.1 202.48 88.82 202.48 85.6C202.6 77.74 202.7 70.32 202.08 62.32C202.36 62.32 202.64 62.32 202.92 62.32C203.636 62.357 204.351 62.2261 205.007 61.9379C205.663 61.6497 206.243 61.2121 206.7 60.66C208.2 58.66 207.34 54.02 205.1 51.9C204.547 51.333 203.822 50.9633 203.038 50.8477C202.254 50.7321 201.454 50.877 200.76 51.26C200.56 49.86 200.36 48.36 200.04 46.78C199.58 43.3067 198.199 40.0198 196.04 37.26C195.271 36.2797 194.303 35.4734 193.2 34.8943C192.097 34.3151 190.884 33.9763 189.64 33.9C188.088 33.9918 186.571 34.393 185.176 35.0799C183.782 35.7669 182.539 36.7257 181.52 37.9C167.06 31.9 164.14 33.2 163.24 34.96C163.019 35.3541 162.903 35.7983 162.903 36.25C162.903 36.7017 163.019 37.1459 163.24 37.54C165.02 40.78 173.58 42.86 176.96 43.54C174.269 47.6217 172.175 52.0665 170.74 56.74C169 64.18 179 80.22 182.22 81.5H182.58C182.3 82.84 182.08 84.24 181.86 85.6C181.507 88.8098 180.748 91.9616 179.6 94.98C178.102 95.8772 176.995 97.305 176.5 98.98C173.94 98.98 166.18 99.14 161.04 101.96C151.747 107.579 143.037 114.112 135.04 121.46C131.5 113.46 126.22 99.68 124.76 95.3C128.14 90.38 125.8 82.56 124.76 78.8L124.54 78.06C124.396 77.4196 124.015 76.8575 123.473 76.4865C122.931 76.1155 122.269 75.9632 121.62 76.06C120.925 76.2308 120.325 76.6689 119.95 77.2792C119.576 77.8895 119.457 78.6228 119.62 79.32V79.68C119.754 80.7816 119.821 81.8903 119.82 83C117.82 78.22 113.7 72.14 110.48 71C110.072 70.8287 109.63 70.7557 109.189 70.787C108.747 70.8183 108.32 70.9529 107.94 71.18C107.601 71.381 107.324 71.6717 107.14 72.02C106.388 71.5059 105.491 71.2466 104.58 71.28C104.122 71.3001 103.677 71.4381 103.289 71.6806C102.9 71.9232 102.58 72.2621 102.361 72.6646C102.141 73.067 102.03 73.5192 102.037 73.9775C102.044 74.4357 102.169 74.8844 102.4 75.28H102.22C101.819 75.4613 101.468 75.7385 101.2 76.0874C100.931 76.4362 100.753 76.8458 100.68 77.28C100.859 78.8958 101.645 80.3831 102.88 81.44L103.34 81.94C105.565 84.3136 107.328 87.0808 108.54 90.1V90.3C109.88 94.2 111.76 98.64 114.38 99.48C115.46 106.28 116.94 114.22 118.52 122.6C119.68 128.82 120.88 135.18 121.94 141.32C121.989 141.539 122.117 141.731 122.3 141.86C123.371 142.595 124.669 142.922 125.96 142.78C134.3 142.78 152.74 136.18 157.96 134.26C154.82 154.06 149.16 192.76 148.9 206.88C148.896 206.994 148.915 207.108 148.956 207.215C148.997 207.321 149.06 207.418 149.14 207.5C149.304 207.665 149.527 207.759 149.76 207.76H150.42C151.8 265.34 165.08 314.06 175.08 345.94L172.92 346.86C167.333 349.525 161.413 351.429 155.32 352.52C154.014 352.596 152.737 352.934 151.566 353.515C150.394 354.095 149.351 354.907 148.5 355.9C147.934 356.708 147.541 357.624 147.345 358.591C147.149 359.558 147.154 360.555 147.36 361.52V365.26C147.36 365.373 147.382 365.485 147.426 365.589C147.469 365.693 147.532 365.788 147.612 365.868C147.692 365.948 147.787 366.011 147.891 366.055C147.995 366.098 148.107 366.12 148.22 366.12H226.76C226.988 366.12 227.207 366.029 227.368 365.868C227.53 365.707 227.62 365.488 227.62 365.26V361.44C227.62 360.02 227.62 354.34 227.62 346.46V340.3C227.86 313.4 228.26 268.54 228.06 230.16C229.869 230.615 231.718 230.896 233.58 231C233.8 230.996 234.01 230.909 234.169 230.757C234.329 230.605 234.425 230.399 234.44 230.18C234.451 229.95 234.371 229.725 234.218 229.553C234.065 229.38 233.85 229.275 233.62 229.26C231.72 229.177 229.835 228.881 228 228.38C228 221.24 228 214.38 227.8 207.9H228.08C228.198 207.9 228.314 207.876 228.421 207.827C228.528 207.779 228.623 207.708 228.7 207.62C228.784 207.537 228.849 207.437 228.89 207.326C228.931 207.216 228.949 207.098 228.94 206.98C228.76 203.58 226.78 190 224.48 174.26C223.88 170.1 223.26 165.84 222.66 161.62C215.985 162.682 209.239 163.236 202.48 163.28C199.213 163.466 195.937 163.122 192.78 162.26C192.628 162.199 192.5 162.09 192.417 161.949C192.334 161.807 192.3 161.643 192.32 161.48L187.68 163.04ZM123.18 94.58L115 98.14C113.58 97.84 111.96 95.1 110.18 89.98V89.8C108.905 86.5782 107.032 83.6264 104.66 81.1L104.18 80.54C103.44 79.72 102.34 78.54 102.4 77.66C102.446 77.5154 102.524 77.3829 102.628 77.2722C102.732 77.1615 102.859 77.0753 103 77.02C103.1 76.9721 103.209 76.9473 103.32 76.9473C103.431 76.9473 103.54 76.9721 103.64 77.02C106.063 79.4868 108.166 82.2484 109.9 85.24C109.974 85.3839 110.085 85.5048 110.223 85.5895C110.36 85.6742 110.519 85.7193 110.68 85.72C110.805 85.7471 110.935 85.7471 111.06 85.72C111.263 85.6208 111.419 85.4455 111.494 85.2321C111.569 85.0187 111.557 84.7845 111.46 84.58C109.558 81.2949 107.239 78.2698 104.56 75.58C103.8 74.86 103.56 74.44 103.7 74.04C103.84 73.64 103.98 73.34 104.64 73.3C105.097 73.3015 105.547 73.411 105.954 73.6195C106.361 73.8281 106.712 74.1298 106.98 74.5C106.98 74.5 106.98 74.5 107.1 74.5C107.514 75.2542 108.055 75.9309 108.7 76.5C110.724 78.2658 112.301 80.4866 113.3 82.98C113.385 83.1927 113.55 83.3639 113.759 83.4573C113.968 83.5507 114.205 83.5588 114.42 83.48C114.525 83.4382 114.621 83.376 114.702 83.297C114.783 83.218 114.848 83.1238 114.893 83.0197C114.937 82.9156 114.961 82.8038 114.962 82.6906C114.963 82.5774 114.942 82.4651 114.9 82.36C113.821 79.6409 112.114 77.215 109.92 75.28C109.333 74.7729 108.863 74.1453 108.54 73.44C108.42 73.08 108.54 72.94 108.76 72.78C108.925 72.6989 109.106 72.6566 109.29 72.6566C109.474 72.6566 109.655 72.6989 109.82 72.78C112.5 73.74 116.68 79.98 118.6 84.92C117.415 85.1322 116.337 85.7382 115.54 86.64C115.224 87.0485 115.01 87.5266 114.916 88.0345C114.822 88.5425 114.851 89.0655 115 89.56C115.056 89.7395 115.167 89.8965 115.318 90.0081C115.469 90.1196 115.652 90.1799 115.84 90.18H116.08C116.19 90.148 116.292 90.0945 116.38 90.0226C116.469 89.9508 116.542 89.862 116.596 89.7615C116.65 89.661 116.684 89.5507 116.695 89.4372C116.706 89.3236 116.694 89.209 116.66 89.1C116.573 88.8675 116.547 88.6164 116.586 88.3711C116.625 88.1258 116.726 87.8946 116.88 87.7C117.63 86.9562 118.644 86.5392 119.7 86.54C119.854 86.5506 120.007 86.5166 120.142 86.4421C120.277 86.3676 120.387 86.2558 120.46 86.12C121.68 84.78 121.4 82.32 121.14 79.7V79.34C121.14 78.58 121.26 78.04 121.7 77.96C121.913 77.9415 122.125 78.003 122.295 78.1324C122.465 78.2618 122.581 78.4499 122.62 78.66L122.84 79.42C123.9 82.94 126.08 90.24 123.14 94.48C123.151 94.5143 123.164 94.5477 123.18 94.58ZM179.64 364.58H149V362.58H179.6L179.64 364.58ZM225.86 364.58H181.44V362.58H179.66V362.06C179.66 354.42 183.66 352.92 187.66 352.46C190.084 352.136 192.474 351.593 194.8 350.84C194.8 349.54 194.8 347.46 194.8 346.62C194.8 343.8 194.8 339.96 194.92 335.36C195.04 327.12 195.16 316.4 195.28 304.48C199.28 319.52 203.5 333.68 207.28 345.9L207.82 347.52C207.28 347.72 206.72 347.98 205.82 348.4C200.112 351.139 194.056 353.084 187.82 354.18C183.82 354.64 181.34 356.18 181.4 362.02V362.58L225.82 362.78L225.86 364.58ZM182.5 165.24C183.987 165.227 185.471 165.107 186.94 164.88L186.52 168.58C184.932 168.948 183.31 169.149 181.68 169.18C180.221 169.176 178.769 168.981 177.36 168.6L176.9 164.6C178.733 165.046 180.614 165.261 182.5 165.24ZM226.24 208.18C226.24 214.46 226.38 221.2 226.42 228.18C222.26 226.74 214.96 222.9 215.22 213.56C215.223 213.447 215.203 213.335 215.162 213.229C215.122 213.124 215.06 213.028 214.982 212.946C214.904 212.864 214.811 212.799 214.708 212.753C214.604 212.707 214.493 212.683 214.38 212.68C214.267 212.677 214.155 212.697 214.049 212.738C213.944 212.779 213.848 212.84 213.766 212.918C213.684 212.996 213.619 213.089 213.573 213.192C213.528 213.296 213.503 213.407 213.5 213.52C213.28 221.38 217.98 227.34 226.42 230C226.62 268.46 226.24 313.56 226 340.56V345.86H209.14C204.78 332 199.76 315.52 195.44 298.04C188.58 270.4 184.9 246.04 184.22 223.62C184.196 223.395 184.092 223.186 183.927 223.032C183.761 222.878 183.546 222.788 183.32 222.78C183.094 222.79 182.88 222.888 182.724 223.051C182.567 223.215 182.48 223.433 182.48 223.66C183.578 248.853 187.339 273.859 193.7 298.26C193.58 312.7 193.42 325.8 193.3 335.46C193.3 339.64 193.3 343.14 193.18 345.86H176.84C166.84 314.1 153.6 265.5 152.2 208.04L226.24 208.18ZM189.7 35.7C190.708 35.7707 191.69 36.0551 192.579 36.5344C193.469 37.0138 194.247 37.677 194.86 38.48C196.449 40.5204 197.519 42.9154 197.98 45.46C195.02 44 189.32 41.24 183.36 38.72C184.995 36.92 187.272 35.8352 189.7 35.7ZM165 36.8C164.912 36.6555 164.865 36.4894 164.865 36.32C164.865 36.1506 164.912 35.9845 165 35.84C165.2 35.44 167 33.84 180.48 39.36C179.693 40.2355 178.958 41.1571 178.28 42.12C175.72 41.7 166.36 39.48 165 36.8ZM180.42 119.46C180.582 119.298 180.801 119.207 181.03 119.207C181.259 119.207 181.478 119.298 181.64 119.46C181.802 119.622 181.893 119.841 181.893 120.07C181.893 120.299 181.802 120.518 181.64 120.68C179.36 122.92 178.84 124.68 179.76 126.68C179.961 127.088 180.188 127.482 180.44 127.86C180.922 128.545 181.293 129.3 181.54 130.1C181.634 130.971 181.536 131.853 181.252 132.682C180.969 133.511 180.507 134.268 179.9 134.9C179.823 134.995 179.725 135.071 179.614 135.123C179.503 135.174 179.382 135.201 179.26 135.2C179.047 135.196 178.842 135.118 178.68 134.98C178.6 134.9 178.536 134.805 178.492 134.7C178.449 134.596 178.426 134.483 178.426 134.37C178.426 134.257 178.449 134.144 178.492 134.04C178.536 133.935 178.6 133.84 178.68 133.76C179.102 133.333 179.43 132.822 179.644 132.261C179.857 131.699 179.951 131.1 179.92 130.5C179.719 129.888 179.429 129.308 179.06 128.78C178.76 128.333 178.493 127.865 178.26 127.38C176.52 123.84 178.46 121.28 180.32 119.46H180.42ZM181.98 137.86C184.599 137.726 187.219 138.093 189.7 138.94C187.221 139.798 184.599 140.165 181.98 140.02C179.361 140.163 176.739 139.796 174.26 138.94C176.71 138.107 179.295 137.741 181.88 137.86H181.98ZM184.84 126.68C185.034 127.088 185.254 127.482 185.5 127.86C185.985 128.543 186.356 129.299 186.6 130.1C186.697 130.97 186.601 131.85 186.322 132.679C186.042 133.509 185.584 134.266 184.98 134.9C184.898 134.994 184.796 135.069 184.682 135.121C184.569 135.173 184.445 135.2 184.32 135.2C184.157 135.193 183.998 135.14 183.863 135.048C183.728 134.956 183.621 134.828 183.554 134.678C183.488 134.529 183.464 134.363 183.486 134.201C183.509 134.039 183.576 133.886 183.68 133.76C184.102 133.333 184.43 132.822 184.644 132.261C184.857 131.699 184.951 131.1 184.92 130.5C184.716 129.885 184.419 129.305 184.04 128.78C183.747 128.333 183.486 127.865 183.26 127.38C181.7 123.84 183.62 121.38 185.48 119.38C185.642 119.218 185.861 119.127 186.09 119.127C186.319 119.127 186.538 119.218 186.7 119.38C186.862 119.542 186.953 119.761 186.953 119.99C186.953 120.219 186.862 120.438 186.7 120.6C184.34 122.92 183.82 124.6 184.74 126.68H184.84ZM188.72 149.48C187.82 151.48 183.6 151.58 179.9 151C178.7 150.8 175.7 149.7 175.22 148.54L174.34 140.82C176.829 141.494 179.402 141.811 181.98 141.76C184.604 141.803 187.22 141.452 189.74 140.72L188.72 149.48ZM199.82 61.58C200 61.68 200.22 61.74 200.44 61.84C201.1 69.98 200.98 77.56 200.86 85.56C200.86 88.54 200.86 91.56 200.86 94.62C194.624 93.3709 188.213 93.2693 181.94 94.32C182.796 91.6004 183.406 88.8091 183.76 85.98C183.98 84.56 184.22 83.2 184.48 81.98H184.92C187.169 81.7908 189.335 81.0374 191.215 79.7893C193.096 78.5413 194.632 76.839 195.68 74.84C195.777 74.6356 195.789 74.4013 195.714 74.188C195.639 73.9746 195.483 73.7993 195.28 73.7C195.178 73.6462 195.067 73.6138 194.952 73.605C194.837 73.5961 194.722 73.6108 194.613 73.6483C194.505 73.6858 194.405 73.7453 194.32 73.823C194.235 73.9007 194.167 73.995 194.12 74.1C192.52 77.4 187.6 80.84 183.92 80.1C183.629 80.0387 183.341 79.9585 183.06 79.86C180.9 78.98 171.06 64.02 172.76 57.24C174.264 52.3426 176.518 47.7077 179.44 43.5C180.241 42.281 181.116 41.1122 182.06 40C188.32 42.62 194.46 45.62 197.44 47.08L198.44 47.56C198.76 49.22 198.98 50.86 199.18 52.3V52.48C198.646 53.0203 198.164 53.6095 197.74 54.24C197.673 54.3322 197.625 54.4371 197.599 54.5484C197.574 54.6597 197.571 54.7751 197.592 54.8874C197.613 54.9997 197.656 55.1066 197.719 55.2016C197.782 55.2967 197.864 55.3778 197.96 55.44C198.053 55.5047 198.158 55.5504 198.269 55.5743C198.38 55.5983 198.494 55.6001 198.606 55.5797C198.717 55.5592 198.824 55.5169 198.919 55.4552C199.014 55.3935 199.096 55.3136 199.16 55.22C199.599 54.5426 200.124 53.9243 200.72 53.38C201.92 52.36 202.96 52.28 203.92 53.18C205.62 54.8 206.22 58.44 205.32 59.62C204.819 60.1126 204.185 60.4487 203.496 60.5872C202.807 60.7257 202.093 60.6607 201.44 60.4C201.126 60.3088 200.824 60.1813 200.54 60.02C200.338 59.9117 200.101 59.8867 199.881 59.9502C199.661 60.0137 199.474 60.1608 199.36 60.36C199.298 60.4624 199.258 60.5766 199.243 60.6954C199.227 60.8141 199.237 60.9347 199.271 61.0496C199.304 61.1644 199.362 61.2709 199.439 61.3623C199.517 61.4536 199.612 61.5278 199.72 61.58H199.82Z" fill="black"/>
</svg>
