<svg width="295" height="68" viewBox="0 0 295 68" fill="none" xmlns="http://www.w3.org/2000/svg">
<path d="M36.3292 25.34L28.6342 50H24.4042L18.4642 30.425L12.5242 50H8.29416L0.55416 25.34H4.73916L10.4092 46.04L16.5292 25.34H20.7142L26.6992 46.085L32.2792 25.34H36.3292ZM38.8632 37.58C38.8632 35.06 39.3732 32.855 40.3932 30.965C41.4132 29.045 42.8082 27.56 44.5782 26.51C46.3782 25.46 48.3732 24.935 50.5632 24.935C52.7232 24.935 54.5982 25.4 56.1882 26.33C57.7782 27.26 58.9632 28.43 59.7432 29.84V25.34H63.8832V50H59.7432V45.41C58.9332 46.85 57.7182 48.05 56.0982 49.01C54.5082 49.94 52.6482 50.405 50.5182 50.405C48.3282 50.405 46.3482 49.865 44.5782 48.785C42.8082 47.705 41.4132 46.19 40.3932 44.24C39.3732 42.29 38.8632 40.07 38.8632 37.58ZM59.7432 37.625C59.7432 35.765 59.3682 34.145 58.6182 32.765C57.8682 31.385 56.8482 30.335 55.5582 29.615C54.2982 28.865 52.9032 28.49 51.3732 28.49C49.8432 28.49 48.4482 28.85 47.1882 29.57C45.9282 30.29 44.9232 31.34 44.1732 32.72C43.4232 34.1 43.0482 35.72 43.0482 37.58C43.0482 39.47 43.4232 41.12 44.1732 42.53C44.9232 43.91 45.9282 44.975 47.1882 45.725C48.4482 46.445 49.8432 46.805 51.3732 46.805C52.9032 46.805 54.2982 46.445 55.5582 45.725C56.8482 44.975 57.8682 43.91 58.6182 42.53C59.3682 41.12 59.7432 39.485 59.7432 37.625ZM82.8184 24.89C85.8184 24.89 88.2484 25.805 90.1084 27.635C91.9684 29.435 92.8984 32.045 92.8984 35.465V50H88.8484V36.05C88.8484 33.59 88.2334 31.715 87.0034 30.425C85.7734 29.105 84.0934 28.445 81.9634 28.445C79.8034 28.445 78.0784 29.12 76.7884 30.47C75.5284 31.82 74.8984 33.785 74.8984 36.365V50H70.8034V25.34H74.8984V28.85C75.7084 27.59 76.8034 26.615 78.1834 25.925C79.5934 25.235 81.1384 24.89 82.8184 24.89ZM98.0576 37.58C98.0576 35.06 98.5676 32.855 99.5876 30.965C100.608 29.045 102.003 27.56 103.773 26.51C105.573 25.46 107.583 24.935 109.803 24.935C111.723 24.935 113.508 25.385 115.158 26.285C116.808 27.155 118.068 28.31 118.938 29.75V16.7H123.078V50H118.938V45.365C118.128 46.835 116.928 48.05 115.338 49.01C113.748 49.94 111.888 50.405 109.758 50.405C107.568 50.405 105.573 49.865 103.773 48.785C102.003 47.705 100.608 46.19 99.5876 44.24C98.5676 42.29 98.0576 40.07 98.0576 37.58ZM118.938 37.625C118.938 35.765 118.563 34.145 117.813 32.765C117.063 31.385 116.043 30.335 114.753 29.615C113.493 28.865 112.098 28.49 110.568 28.49C109.038 28.49 107.643 28.85 106.383 29.57C105.123 30.29 104.118 31.34 103.368 32.72C102.618 34.1 102.243 35.72 102.243 37.58C102.243 39.47 102.618 41.12 103.368 42.53C104.118 43.91 105.123 44.975 106.383 45.725C107.643 46.445 109.038 46.805 110.568 46.805C112.098 46.805 113.493 46.445 114.753 45.725C116.043 44.975 117.063 43.91 117.813 42.53C118.563 41.12 118.938 39.485 118.938 37.625ZM152.498 36.725C152.498 37.505 152.453 38.33 152.363 39.2H132.653C132.803 41.63 133.628 43.535 135.128 44.915C136.658 46.265 138.503 46.94 140.663 46.94C142.433 46.94 143.903 46.535 145.073 45.725C146.273 44.885 147.113 43.775 147.593 42.395H152.003C151.343 44.765 150.023 46.7 148.043 48.2C146.063 49.67 143.603 50.405 140.663 50.405C138.323 50.405 136.223 49.88 134.363 48.83C132.533 47.78 131.093 46.295 130.043 44.375C128.993 42.425 128.468 40.175 128.468 37.625C128.468 35.075 128.978 32.84 129.998 30.92C131.018 29 132.443 27.53 134.273 26.51C136.133 25.46 138.263 24.935 140.663 24.935C143.003 24.935 145.073 25.445 146.873 26.465C148.673 27.485 150.053 28.895 151.013 30.695C152.003 32.465 152.498 34.475 152.498 36.725ZM148.268 35.87C148.268 34.31 147.923 32.975 147.233 31.865C146.543 30.725 145.598 29.87 144.398 29.3C143.228 28.7 141.923 28.4 140.483 28.4C138.413 28.4 136.643 29.06 135.173 30.38C133.733 31.7 132.908 33.53 132.698 35.87H148.268ZM161.998 29.345C162.718 27.935 163.738 26.84 165.058 26.06C166.408 25.28 168.043 24.89 169.963 24.89V29.12H168.883C164.293 29.12 161.998 31.61 161.998 36.59V50H157.903V25.34H161.998V29.345Z" fill="black"/>
<path d="M178.785 16.7V50H174.69V16.7H178.785ZM207.634 25.34V50H203.539V46.355C202.759 47.615 201.664 48.605 200.254 49.325C198.874 50.015 197.344 50.36 195.664 50.36C193.744 50.36 192.019 49.97 190.489 49.19C188.959 48.38 187.744 47.18 186.844 45.59C185.974 44 185.539 42.065 185.539 39.785V25.34H189.589V39.245C189.589 41.675 190.204 43.55 191.434 44.87C192.664 46.16 194.344 46.805 196.474 46.805C198.664 46.805 200.389 46.13 201.649 44.78C202.909 43.43 203.539 41.465 203.539 38.885V25.34H207.634ZM223.278 50.405C221.388 50.405 219.693 50.09 218.193 49.46C216.693 48.8 215.508 47.9 214.638 46.76C213.768 45.59 213.288 44.255 213.198 42.755H217.428C217.548 43.985 218.118 44.99 219.138 45.77C220.188 46.55 221.553 46.94 223.233 46.94C224.793 46.94 226.023 46.595 226.923 45.905C227.823 45.215 228.273 44.345 228.273 43.295C228.273 42.215 227.793 41.42 226.833 40.91C225.873 40.37 224.388 39.845 222.378 39.335C220.548 38.855 219.048 38.375 217.878 37.895C216.738 37.385 215.748 36.65 214.908 35.69C214.098 34.7 213.693 33.41 213.693 31.82C213.693 30.56 214.068 29.405 214.818 28.355C215.568 27.305 216.633 26.48 218.013 25.88C219.393 25.25 220.968 24.935 222.738 24.935C225.468 24.935 227.673 25.625 229.353 27.005C231.033 28.385 231.933 30.275 232.053 32.675H227.958C227.868 31.385 227.343 30.35 226.383 29.57C225.453 28.79 224.193 28.4 222.603 28.4C221.133 28.4 219.963 28.715 219.093 29.345C218.223 29.975 217.788 30.8 217.788 31.82C217.788 32.63 218.043 33.305 218.553 33.845C219.093 34.355 219.753 34.775 220.533 35.105C221.343 35.405 222.453 35.75 223.863 36.14C225.633 36.62 227.073 37.1 228.183 37.58C229.293 38.03 230.238 38.72 231.018 39.65C231.828 40.58 232.248 41.795 232.278 43.295C232.278 44.645 231.903 45.86 231.153 46.94C230.403 48.02 229.338 48.875 227.958 49.505C226.608 50.105 225.048 50.405 223.278 50.405ZM243.054 28.715V43.25C243.054 44.45 243.309 45.305 243.819 45.815C244.329 46.295 245.214 46.535 246.474 46.535H249.489V50H245.799C243.519 50 241.809 49.475 240.669 48.425C239.529 47.375 238.959 45.65 238.959 43.25V28.715H235.764V25.34H238.959V19.13H243.054V25.34H249.489V28.715H243.054Z" fill="#A26EA1"/>
<path d="M279.5 17.5833L283.491 25.6692L292.417 26.9737L285.958 33.2642L287.483 42.1508L279.5 37.9529L271.518 42.1508L273.042 33.2642L266.583 26.9737L275.509 25.6692L279.5 17.5833Z" fill="#FFB480"/>
<path d="M261 18L263.163 22.2787L268 22.969L264.5 26.2976L265.326 31L261 28.7787L256.674 31L257.5 26.2976L254 22.969L258.837 22.2787L261 18Z" fill="#FFB480"/>
<path d="M268 40L270.163 44.2787L275 44.969L271.5 48.2976L272.326 53L268 50.7787L263.674 53L264.5 48.2976L261 44.969L265.837 44.2787L268 40Z" fill="#F18A9B"/>
</svg>
